_________________________  Visit us at _________________________
  
http://p2pdl.com  ____________________________  http://p2pdl.com


Upstream Color 2013 BRRip 720p x264 AAC - PRiSTiNE [P2PDL]

Genre: Drama
Plot: A man and woman are drawn together, entangled 
in the life cycle of an ageless organism. Identity 
becomes an illusion as they struggle to assemble 
the loose fragments of wrecked lives.
Director: Shane Carruth
Stars: Amy Seimetz, Shane Carruth, Andrew Sensenig
Rated: Not Rated

Info: 
http://www.imdb.com/title/tt2084989/

General
Complete name                  : Upstream Color 2013 BRRip 720p x264 AAC - PRiSTiNE.mp4
Format                         : MPEG-4
File size                      : 602 MiB
Duration                       : 1h 36mn
Overall bit rate mode          : Variable
Overall bit rate               : 876 Kbps

Video
Format                         : AVC
Format/Info                    : Advanced Video Codec
Format profile                 : High 10@L4.1
Bit rate                       : 794 Kbps
Width                          : 1 280 pixels
Height                         : 544 pixels
Display aspect ratio           : 2.35:1
Frame rate mode                : Constant
Frame rate                     : 23.976 fps
Bit depth                      : 10 bits
Stream size                    : 545 MiB (91%)
Writing library                : x264 core 130 r2273 b3065e6

Audio
Format                         : AAC
Format/Info                    : Advanced Audio Codec
Bit rate mode                  : Variable
Bit rate                       : 79.2 Kbps
Channel(s)                     : 2 channels
Channel positions              : Front: L R
Sampling rate                  : 48.0 KHz / 24.0 KHz
Stream size                    : 54.4 MiB (9%)
Language                       : English

Subtitle                       : Yes (English)
Source                         : 720p.BluRay.x264-AMIABLE (Thanks)

Screenshots:
 
http://www.ultraimg.com/images/ENOSH.jpg 
http://www.ultraimg.com/images/Gvzn.jpg 
http://www.ultraimg.com/images/4uFUx.jpg 
http://www.ultraimg.com/images/rbJSH.jpg 
http://www.ultraimg.com/images/hCL2W.jpg 
http://www.ultraimg.com/images/scbya.jpg 
http://www.ultraimg.com/images/hSkP5.jpg 
http://www.ultraimg.com/images/B5Xch.jpg 
http://www.ultraimg.com/images/pCaRx.jpg

----------------------------------------------------------------------------------------------------


Encoded using revolutionary 10bit encoding, which enables us to provide you more crispier 
and sharper images at small sizes, just make sure you follow our instructions without a fault.
Recommend to you to use latest version of VLC player. Install K-Lite Codec Pack or shark007 codecs
in case of any kind of problem in playback (For non-VLC Media Player users). Alternatively, install
Core AVC codecs, the fastest decoder that there is coupled with Community Center Codec Pack and play
on Windows Media Player Classic. Check sample to be sure.
Enjoy!

Encoder Notes:Looking For Early Access To Anything You Can Provide DVDScr, R5, DVDR, BluRay, Direct
Audio, Music Releases and Seedboxes. We require dedicated servers, so as to do more 
and fast releases of movies.
If You Got anything to offer please contact us at "prg@hush.com".

Face book Fan Page:   
http://www.fb.me/p2pdl